<svg xmlns:svg="http://www.w3.org/2000/svg" xmlns="http://www.w3.org/2000/svg" version="1.0" width="113.13" height="48.41" id="svg2618">
  <defs id="defs2620">
    <clipPath id="clipPath2542">
      <path d="M 106.714,39.228 L 195.415,39.228 L 195.415,77.729 L 106.714,77.729 L 106.714,39.228 z" id="path2544"/>
    </clipPath>
  </defs>
  <g transform="translate(-496.62869,-649.89138)" id="layer1">
    <g transform="matrix(1.25,0,0,-1.25,508.95118,661.22764)" id="g2546">
      <path d="M 0,0 L 1.283,-2.002 C 1.283,-2.002 1.283,-2.348 2.505,-2.25 C 3.728,-2.152 8.25,-2.145 10.245,-2.483 C 12.24,-2.82 14.055,-3.36 14.093,-4.035 C 14.13,-4.71 13.878,-4.872 8.813,-6.443 C 3.638,-8.047 2.216,-7.787 -0.03,-9.99 C -1.987,-11.91 -0.675,-14.49 -0.45,-15.015 C -0.317,-15.325 -0.885,-13.47 0.66,-12.06 C 2.205,-10.65 4.2,-9.99 4.2,-9.99 C 4.2,-9.99 11.685,-7.981 13.193,-6.848 C 14.701,-5.715 15.038,-4.965 15.225,-4.117 C 15.413,-3.27 15.57,-1.987 11.843,-0.84 C 8.115,0.308 3.023,-0.277 3.023,-0.277 C 3.023,-0.277 1.687,-0.27 1.013,-0.232 C 0.338,-0.195 0,0 0,0" id="path2548" style="fill:#901216;fill-opacity:1;fill-rule:nonzero;stroke:none"/>
    </g>
    <g transform="matrix(1.25,0,0,-1.25,518.58869,657.60888)" id="g2550">
      <path d="M 0,0 C 0,0 -3.125,-6.512 -3.69,-10.208 C -4.391,-14.79 -4.347,-16.94 -4.883,-21.172 C -5.033,-22.361 -4.987,-23.512 -6.532,-24.022 C -8.078,-24.533 -9.585,-24.09 -9.585,-24.09 C -9.585,-24.09 -7.922,-23.894 -7.388,-21.54 C -7.04,-20.008 -6.662,-12.474 -5.978,-10.102 C -4.467,-4.864 0,0 0,0" id="path2552" style="fill:#901216;fill-opacity:1;fill-rule:nonzero;stroke:none"/>
    </g>
    <g transform="matrix(1.25,0,0,-1.25,498.62869,681.80762)" id="g2554">
      <path d="M 0,0 C 0,0 26.428,0.055 46.693,0.056 C 61.184,0.056 87.301,-0.031 87.301,-0.031 C 87.301,-0.031 61.187,-0.815 46.693,-0.894 C 26.426,-1.004 0,0 0,0" id="path2556" style="fill:#901216;fill-opacity:1;fill-rule:nonzero;stroke:none"/>
    </g>
    <g transform="matrix(1.25,0,0,-1.25,552.44495,669.72388)" id="g2558">
      <path d="M 0,0 C 0,0 -0.009,0.626 1.244,1.378 C 3.858,2.947 9.385,1.066 11.822,0.934 C 13.001,0.87 16.797,0.677 18.284,1.823 C 19.23,2.552 18.994,3.476 18.994,3.476 L 21.045,4.472 C 21.045,4.472 20.937,3.017 19.389,1.851 C 18.129,0.901 15.657,-1.063 11.888,-0.556 C 8.908,-0.156 7.377,0.617 2.838,1.24 C 0.754,1.352 0,0 0,0" id="path2560" style="fill:#901216;fill-opacity:1;fill-rule:nonzero;stroke:none"/>
    </g>
    <g transform="matrix(1.25,0,0,-1.25,567.47619,651.89138)" id="g2562">
      <path d="M 0,0 C -5.083,-5.522 -9.028,-18.329 -1.893,-24.22 C 1.557,-27.069 5.902,-26.488 7.925,-25.636 C 13.054,-23.477 9.932,-21.514 8.011,-19.423 C 5.289,-16.46 5.935,-15.756 6.157,-15.247 C 6.728,-13.939 9.078,-12.752 12.947,-13.848 C 12.277,-14.184 11.197,-15.069 10.519,-15.389 C 9.995,-14.944 8.653,-14.505 8.254,-15.438 C 6.983,-18.411 16.766,-20.134 10.668,-25.138 C 5.698,-29.217 -1.512,-29.275 -5.54,-22.852 C -9.388,-16.714 -7.848,-8.432 -1.507,-1.203 L 0,0" id="path2564" style="fill:#901216;fill-opacity:1;fill-rule:nonzero;stroke:none"/>
    </g>
    <g transform="matrix(1.25,0,0,-1.25,537.14244,652.00263)" id="g2566">
      <path d="M 0,0 C 0,0 -3.18,-1.38 -6.9,-6 C -9.3,-8.7 -10.62,-12.3 -10.74,-14.34 C -10.784,-15.089 -10.995,-15.747 -11.091,-16.349 L -11.095,-16.376 C -11.095,-16.376 -9.154,-14.934 -6.6,-15.95 C -4.973,-16.597 -5.079,-18.628 -5.079,-18.628 L -5.09,-19.288 L -4.284,-18.74 L -4.404,-20.496 L -7.36,-21.981 C -7.36,-21.981 -7.309,-20.129 -7.391,-19.374 C -7.444,-18.115 -8.071,-17.651 -9.606,-17.981 C -9.606,-17.981 -11.131,-18.179 -11.26,-19.461 L -11.514,-21.17 L -13.98,-22.019 L -13.332,-15.962 C -12.96,-13.2 -12.131,-11.329 -10.68,-8.76 C -7.02,-2.28 0,0 0,0" id="path2568" style="fill:#901216;fill-opacity:1;fill-rule:nonzero;stroke:none"/>
    </g>
    <g transform="matrix(1.25,0,0,-1.25,597.28494,692.65887)" id="g2570">
      <path d="M 0,0 C 0,0.76 -0.2,1.121 -0.6,1.563 C -0.999,2.006 -1.759,2.104 -2.878,2.099 L -3.428,2.083 C -3.616,2.083 -3.8,2.053 -3.978,1.993 C -4.157,1.934 -4.246,1.806 -4.246,1.611 L -4.246,-1.554 C -4.246,-1.749 -4.157,-1.876 -3.978,-1.936 C -3.8,-1.996 -3.616,-2.026 -3.428,-2.026 L -2.878,-2.042 C -1.815,-2.042 -1.07,-1.829 -0.642,-1.403 C -0.214,-0.977 0,-0.749 0,0 M 1.538,2.028 C 2.008,1.761 2.353,1.459 2.574,1.12 C 2.796,0.78 2.906,0.407 2.906,0 C 2.906,-0.364 2.807,-0.718 2.61,-1.063 C 2.412,-1.407 2.083,-1.707 1.622,-1.962 C 1.133,-2.234 0.553,-2.442 -0.12,-2.585 C -0.792,-2.729 -1.693,-2.801 -2.821,-2.801 C -3.179,-2.801 -3.623,-2.797 -4.155,-2.789 C -4.686,-2.781 -5.13,-2.777 -5.488,-2.777 C -5.892,-2.777 -6.395,-2.779 -6.997,-2.785 C -7.599,-2.79 -7.945,-2.78 -8.274,-2.801 C -8.389,-2.808 -8.527,-2.878 -8.522,-2.44 C -8.517,-2.313 -8.495,-2.199 -8.471,-2.156 L -8.274,-2.083 C -7.719,-2.045 -7.474,-1.977 -7.301,-1.879 C -7.126,-1.782 -7.04,-1.621 -7.04,-1.399 L -7.04,1.456 C -7.04,1.678 -7.126,1.839 -7.301,1.936 C -7.474,2.034 -7.719,2.102 -8.274,2.14 L -8.471,2.213 C -8.495,2.256 -8.534,2.347 -8.531,2.511 C -8.522,2.688 -8.495,2.75 -8.471,2.793 L -8.274,2.858 C -7.945,2.853 -7.599,2.847 -6.997,2.842 C -6.395,2.836 -5.892,2.834 -5.488,2.834 C -5.13,2.834 -4.684,2.838 -4.148,2.846 C -3.611,2.854 -3.169,2.858 -2.821,2.858 C -1.862,2.858 -1.016,2.786 -0.282,2.642 C 0.451,2.498 1.058,2.294 1.538,2.028" id="path2572" style="fill:#901216;fill-opacity:1;fill-rule:evenodd;stroke:none"/>
    </g>
    <g transform="matrix(1.25,0,0,-1.25,518.70618,693.53389)" id="g2574">
      <path d="M 0,0 C -0.066,-0.304 -0.129,-0.676 -0.19,-1.116 C -0.252,-1.555 -0.292,-1.884 -0.31,-2.101 C -0.903,-2.09 -1.641,-2.08 -2.525,-2.072 C -3.409,-2.064 -4.129,-2.06 -4.684,-2.06 C -5.285,-2.06 -6.061,-2.065 -7.011,-2.076 C -7.961,-2.087 -8.671,-2.095 -9.142,-2.101 L -9.219,-2.04 L -9.254,-1.802 L -9.219,-1.576 L -9.142,-1.503 C -8.596,-1.464 -8.236,-1.397 -8.062,-1.299 C -7.888,-1.201 -7.801,-1.041 -7.801,-0.819 L -7.801,2.156 C -7.801,2.379 -7.888,2.539 -8.062,2.637 C -8.236,2.734 -8.596,2.922 -9.142,2.96 L -9.219,3.033 L -9.254,3.259 L -9.219,3.497 L -9.142,3.558 C -8.69,3.558 -8.227,3.552 -7.752,3.538 C -7.277,3.524 -6.828,3.518 -6.405,3.518 C -5.972,3.518 -5.521,3.524 -5.05,3.538 C -4.58,3.552 -4.115,3.558 -3.654,3.558 L -3.576,3.493 L -3.541,3.259 L -3.576,3.029 L -3.654,2.96 C -4.199,2.928 -4.561,2.74 -4.74,2.637 C -4.919,2.533 -5.008,2.493 -5.008,2.276 L -5.008,-0.941 C -5.008,-1.136 -4.916,-1.265 -4.733,-1.328 C -4.55,-1.39 -4.364,-1.421 -4.176,-1.421 L -3.372,-1.421 C -2.713,-1.421 -2.128,-1.482 -1.615,-1.124 C -1.103,-0.765 -0.896,-0.484 -0.755,-0.039 C -0.755,-0.028 -0.645,0.123 -0.437,0.114 C -0.334,0.11 -0.233,0.103 -0.134,0.081 C -0.035,0.06 0.009,0.033 0,0" id="path2576" style="fill:#901216;fill-opacity:1;fill-rule:nonzero;stroke:none"/>
    </g>
    <g transform="matrix(1.25,0,0,-1.25,573.59619,689.46014)" id="g2578">
      <path d="M 0,0 L -0.035,-0.35 L -0.113,-0.419 C -0.64,-0.452 -0.889,-0.518 -1.1,-0.619 C -1.312,-0.719 -1.422,-1.001 -1.432,-1.223 L -1.587,-5.152 L -1.799,-5.445 C -1.86,-5.464 -1.961,-5.474 -2.102,-5.474 C -2.205,-5.474 -2.295,-5.47 -2.37,-5.462 L -2.539,-5.409 L -9.275,-1.651 L -9.36,-4.078 C -9.379,-4.289 -9.28,-4.448 -9.064,-4.554 C -8.847,-4.66 -8.587,-4.729 -8.041,-4.762 L -7.964,-4.823 L -7.928,-5.061 L -7.964,-5.295 L -8.041,-5.36 C -8.399,-5.36 -8.728,-5.353 -9.029,-5.339 C -9.33,-5.326 -9.645,-5.319 -9.974,-5.319 C -10.312,-5.319 -10.625,-5.326 -10.912,-5.339 C -11.199,-5.353 -11.502,-5.36 -11.822,-5.36 L -11.9,-5.295 L -11.935,-5.061 L -11.892,-4.827 L -11.808,-4.762 C -11.271,-4.729 -11.02,-4.661 -10.813,-4.558 C -10.606,-4.455 -10.503,-4.295 -10.503,-4.078 L -10.277,-1.244 C -10.268,-0.951 -10.371,-0.849 -10.588,-0.7 C -10.804,-0.551 -11.093,-0.457 -11.695,-0.419 L -11.765,-0.346 L -11.794,0 L -11.758,0.238 L -11.681,0.299 C -11.455,0.299 -11.187,0.292 -10.877,0.279 C -10.566,0.265 -10.312,0.258 -10.115,0.258 C -9.861,0.258 -9.621,0.265 -9.395,0.279 C -9.17,0.292 -8.878,0.299 -8.521,0.299 L -2.638,-3.021 L -2.638,-1.103 C -2.638,-0.881 -2.751,-0.72 -2.977,-0.623 C -3.203,-0.525 -3.348,-0.457 -3.894,-0.419 L -3.971,-0.354 L -4.006,0 L -3.971,0.234 L -3.894,0.299 C -3.527,0.299 -3.214,0.291 -2.955,0.275 C -2.697,0.258 -2.403,0.25 -2.074,0.25 C -1.735,0.25 -1.401,0.258 -1.072,0.275 C -0.743,0.291 -0.423,0.299 -0.113,0.299 L -0.035,0.238 L 0,0" id="path2580" style="fill:#901216;fill-opacity:1;fill-rule:nonzero;stroke:none"/>
    </g>
    <g transform="matrix(1.25,0,0,-1.25,539.00995,693.50639)" id="g2582">
      <path d="M 0,0 L -0.945,1.671 L -2.186,0 L 0,0 z M 5.265,-1.728 C 5.265,-2.001 5.206,-2.123 5.177,-2.123 C 4.726,-2.123 4.27,-2.116 3.809,-2.103 C 3.348,-2.089 2.925,-2.082 2.539,-2.082 C 2.107,-2.082 1.644,-2.089 1.15,-2.103 C 0.656,-2.116 0.194,-2.13 -0.267,-2.13 C -0.295,-2.13 -0.435,-2.13 -0.422,-1.745 C -0.396,-1.47 -0.431,-1.405 -0.19,-1.403 C 0.496,-1.396 0.636,-1.403 0.636,-1.295 C 0.636,-1.251 0.667,-1.33 0.525,-1.061 C 0.343,-0.746 0.268,-0.631 0.268,-0.631 L -2.607,-0.638 L -3.031,-1.228 C -3.075,-1.293 -3.069,-1.373 -2.837,-1.403 C -2.649,-1.426 -2.767,-1.395 -2.278,-1.405 C -2.147,-1.407 -2.096,-1.406 -2.096,-1.757 C -2.122,-2.24 -2.268,-2.13 -2.296,-2.13 C -2.701,-2.13 -2.92,-2.116 -3.146,-2.103 C -3.372,-2.089 -3.673,-2.082 -4.049,-2.082 C -4.359,-2.082 -4.632,-2.089 -4.867,-2.103 C -5.102,-2.116 -5.38,-2.123 -5.699,-2.123 C -5.727,-2.123 -5.818,-2.092 -5.785,-1.742 C -5.784,-1.517 -5.747,-1.395 -5.629,-1.405 C -5.159,-1.444 -4.839,-1.472 -4.563,-1.313 C -4.339,-1.184 -4.205,-1.174 -3.992,-0.951 L -0.494,3.601 C -0.484,3.618 -0.432,3.632 -0.338,3.646 C -0.244,3.659 -0.155,3.666 -0.07,3.666 C 0.014,3.666 0.104,3.659 0.198,3.646 C 0.292,3.632 0.343,3.618 0.353,3.601 L 3.485,-0.951 C 3.654,-1.222 3.703,-1.251 3.938,-1.373 C 4.173,-1.495 4.68,-1.403 5.151,-1.403 C 5.233,-1.403 5.264,-1.536 5.265,-1.728" id="path2584" style="fill:#901216;fill-opacity:1;fill-rule:evenodd;stroke:none"/>
    </g>
    <g transform="matrix(1.25,0,0,-1.25,541.28994,678.05263)" id="g2586">
      <path d="M 0,0 C -1.768,-2.176 -7.302,-1.077 -7.075,1.27 C -7.016,1.877 -5.849,5.125 0.517,4.362 C 0.549,4.58 0.576,5.063 0.595,5.148 L 2.739,4.693 C 2.739,4.693 2.429,1.786 2.411,1.209 C 2.669,1.464 3.311,1.857 3.311,1.857 L 3.075,-0.226 L 1.263,-1.226 C 1.263,-1.226 0.087,-0.838 0.003,-0.227 L 0,0 z M -2.503,2.744 C -3.024,2.587 -4.169,2.293 -4.396,1.461 C -4.589,0.755 -2.736,0.324 -1.217,0.843 C -0.826,0.977 -0.243,1.37 0.252,1.769 C 0.288,2.089 0.327,2.421 0.367,2.739 C -0.282,2.818 -1.754,2.971 -2.503,2.744" id="path2588" style="fill:#901216;fill-opacity:1;fill-rule:nonzero;stroke:none"/>
    </g>
    <g transform="matrix(1.25,0,0,-1.25,549.53619,672.70013)" id="g2590">
      <path d="M 0,0 C 0,0 1.94,1.586 4.494,0.469 C 6.122,-0.243 6.016,-2.477 6.016,-2.477 L 6.005,-2.808 L 6.81,-2.205 L 6.69,-4.004 L 3.735,-5.505 C 3.735,-5.505 3.786,-4.128 3.703,-3.298 C 3.651,-1.913 3.023,-1.139 1.489,-1.502 C 1.489,-1.502 -0.156,-1.984 -0.286,-3.394 L -0.42,-4.62 L -2.889,-5.554 C -2.845,-5.358 -2.301,-0.248 -2.301,-0.248 L 0.083,0.8 C 0.083,0.8 0.032,0.263 0,0" id="path2592" style="fill:#901216;fill-opacity:1;fill-rule:nonzero;stroke:none"/>
    </g>
    <g transform="matrix(1.25,0,0,-1.25,587.62245,670.34013)" id="g2594">
      <path d="M 0,0 L -0.342,-1.107 L -1.581,-1.539 C -1.581,-1.539 -2.309,-1.201 -2.405,-0.618 C -2.486,-0.129 -2.363,0.396 -2.255,0.85 L -0.437,0.537 L 0,0" id="path2596" style="fill:#901216;fill-opacity:1;fill-rule:nonzero;stroke:none"/>
    </g>
    <g transform="matrix(1.25,0,0,-1.25,586.49244,677.00513)" id="g2598">
      <path d="M 0,0 C 0.257,0.229 0.826,0.707 0.826,0.707 L 0.664,-1.357 L -1.147,-2.388 C -1.147,-2.388 -2.19,-1.69 -2.286,-1.107 C -2.367,-0.618 -1.804,2.657 -1.695,3.111 L 0.327,2.702 C 0.327,2.702 0.018,0.519 0,0" id="path2600" style="fill:#901216;fill-opacity:1;fill-rule:nonzero;stroke:none"/>
    </g>
    <g transform="matrix(1.25,0,0,-1.25,570.99744,678.24887)" id="g2602">
      <path d="M 0,0 C -1.768,-2.176 -7.302,-1.077 -7.075,1.27 C -7.017,1.877 -5.849,5.125 0.517,4.362 C 0.549,4.58 0.576,5.063 0.595,5.148 L 2.739,4.693 C 2.739,4.693 2.429,1.786 2.411,1.209 C 2.668,1.464 3.311,1.857 3.311,1.857 L 3.075,-0.226 L 1.023,-1.226 C 1.023,-1.226 0.086,-0.838 0.003,-0.227 L 0,0 z M -2.384,2.744 C -2.904,2.587 -4.17,2.293 -4.396,1.461 C -4.589,0.755 -2.736,0.324 -1.217,0.843 C -0.826,0.977 -0.243,1.371 0.252,1.769 C 0.288,2.089 0.327,2.421 0.367,2.739 C -0.282,2.818 -1.634,2.971 -2.384,2.744" id="path2604" style="fill:#901216;fill-opacity:1;fill-rule:nonzero;stroke:none"/>
    </g>
    <g transform="matrix(1.25,0,0,-1.25,596.98244,678.14138)" id="g2606">
      <path d="M 0,0 C -1.768,-2.176 -7.302,-1.077 -7.075,1.27 C -7.017,1.877 -5.849,5.125 0.517,4.362 C 0.549,4.58 0.576,5.063 0.595,5.148 L 2.739,4.693 C 2.739,4.693 2.429,1.786 2.411,1.209 C 2.668,1.464 3.311,1.857 3.311,1.857 L 3.075,-0.226 L 1.263,-1.226 C 1.263,-1.226 0.086,-0.838 0.003,-0.227 L 0,0 z M -2.384,2.744 C -2.904,2.587 -4.17,2.293 -4.396,1.461 C -4.589,0.755 -2.736,0.324 -1.217,0.843 C -0.826,0.977 -0.243,1.37 0.252,1.769 C 0.288,2.089 0.327,2.421 0.367,2.739 C -0.282,2.818 -1.634,2.971 -2.384,2.744" id="path2608" style="fill:#901216;fill-opacity:1;fill-rule:nonzero;stroke:none"/>
    </g>
    <g transform="matrix(1.25,0,0,-1.25,518.70618,693.53389)" id="g2610">
      <path d="M 0,0 C -0.066,-0.304 -0.129,-0.676 -0.19,-1.116 C -0.252,-1.555 -0.292,-1.884 -0.31,-2.101 C -0.903,-2.09 -1.641,-2.08 -2.525,-2.072 C -3.409,-2.064 -4.129,-2.06 -4.684,-2.06 C -5.285,-2.06 -6.061,-2.065 -7.011,-2.076 C -7.961,-2.087 -8.671,-2.095 -9.142,-2.101 L -9.219,-2.04 L -9.254,-1.802 L -9.219,-1.576 L -9.142,-1.503 C -8.596,-1.464 -8.236,-1.397 -8.062,-1.299 C -7.888,-1.201 -7.801,-1.041 -7.801,-0.819 L -7.801,2.156 C -7.801,2.379 -7.888,2.539 -8.062,2.637 C -8.236,2.734 -8.596,2.922 -9.142,2.96 L -9.219,3.033 L -9.254,3.259 L -9.219,3.497 L -9.142,3.558 C -8.69,3.558 -8.227,3.552 -7.752,3.538 C -7.277,3.524 -6.828,3.518 -6.405,3.518 C -5.972,3.518 -5.521,3.524 -5.05,3.538 C -4.58,3.552 -4.115,3.558 -3.654,3.558 L -3.576,3.493 L -3.541,3.259 L -3.576,3.029 L -3.654,2.96 C -4.199,2.928 -4.561,2.74 -4.74,2.637 C -4.919,2.533 -5.008,2.409 -5.008,2.192 L -5.008,-0.941 C -5.008,-1.136 -4.916,-1.265 -4.733,-1.328 C -4.55,-1.39 -4.364,-1.421 -4.176,-1.421 L -3.372,-1.421 C -2.713,-1.421 -2.128,-1.482 -1.615,-1.124 C -1.103,-0.765 -0.896,-0.484 -0.755,-0.039 C -0.755,-0.028 -0.645,0.123 -0.437,0.114 C -0.334,0.11 -0.233,0.103 -0.134,0.081 C -0.035,0.06 0.009,0.033 0,0" id="path2612" style="fill:#901216;fill-opacity:1;fill-rule:nonzero;stroke:none"/>
    </g>
    <g transform="matrix(1.25,0,0,-1.25,573.59619,689.46014)" id="g2614">
      <path d="M 0,0 L -0.035,-0.35 L -0.113,-0.419 C -0.64,-0.452 -0.889,-0.518 -1.1,-0.619 C -1.312,-0.719 -1.422,-1.001 -1.432,-1.223 L -1.587,-5.152 L -1.799,-5.445 C -1.86,-5.464 -1.961,-5.474 -2.102,-5.474 C -2.205,-5.474 -2.295,-5.47 -2.37,-5.462 L -2.539,-5.409 L -9.275,-1.651 L -9.36,-4.078 C -9.379,-4.289 -9.28,-4.448 -9.064,-4.554 C -8.847,-4.66 -8.587,-4.612 -8.041,-4.644 L -7.964,-4.706 C -7.94,-4.746 -7.929,-4.861 -7.928,-5.003 C -7.934,-5.122 -7.94,-5.251 -7.964,-5.295 L -8.041,-5.36 C -8.399,-5.36 -8.728,-5.353 -9.029,-5.339 C -9.33,-5.326 -9.645,-5.319 -9.974,-5.319 C -10.312,-5.319 -10.625,-5.326 -10.912,-5.339 C -11.199,-5.353 -11.502,-5.36 -11.822,-5.36 L -11.9,-5.295 C -11.923,-5.251 -11.936,-5.118 -11.935,-5.01 C -11.931,-4.87 -11.921,-4.743 -11.892,-4.705 L -11.808,-4.64 C -11.271,-4.607 -11.008,-4.656 -10.801,-4.553 C -10.594,-4.45 -10.503,-4.295 -10.503,-4.078 L -10.277,-1.244 C -10.268,-0.951 -10.371,-0.849 -10.588,-0.7 C -10.804,-0.551 -11.093,-0.457 -11.695,-0.419 L -11.765,-0.346 C -11.784,-0.303 -11.798,-0.152 -11.794,0 C -11.795,0.1 -11.782,0.197 -11.758,0.238 L -11.681,0.299 C -11.455,0.299 -11.187,0.292 -10.877,0.279 C -10.566,0.265 -10.312,0.258 -10.115,0.258 C -9.861,0.258 -9.621,0.265 -9.395,0.279 C -9.17,0.292 -8.878,0.299 -8.521,0.299 L -2.638,-3.021 L -2.638,-1.103 C -2.638,-0.881 -2.751,-0.72 -2.977,-0.623 C -3.203,-0.525 -3.348,-0.457 -3.894,-0.419 L -3.971,-0.354 L -4.006,0 L -3.971,0.234 L -3.894,0.299 C -3.527,0.299 -3.214,0.291 -2.955,0.275 C -2.697,0.258 -2.403,0.25 -2.074,0.25 C -1.735,0.25 -1.401,0.258 -1.072,0.275 C -0.743,0.291 -0.423,0.299 -0.113,0.299 L -0.035,0.238 L 0,0" id="path2616" style="fill:#901216;fill-opacity:1;fill-rule:nonzero;stroke:none"/>
    </g>
  </g>
</svg>