<svg xmlns="http://www.w3.org/2000/svg" width="615.005" height="958.326" viewBox="0 0 615.005 958.326"><g transform="translate(0)"><g transform="translate(0 202.85)"><path d="M444.05,350.138a50.667,50.667,0,0,1-6.242,30.411l-1.672,2.892,3.183,1.113a58.944,58.944,0,0,0,19.692,3.011,169.353,169.353,0,0,0,22.072-1.928l4.106-.55-2.017-3.567c-1.622-2.867-1.922-6.341-2.24-10.019-.086-.988-.174-2.01-.29-3.02-6.077-54.322-13.759-109.352-21.188-162.57-1.955-14-3.977-28.485-5.938-42.729l-5.625.217c-1.513,26.366-2.982,53.177-4.4,79.106q-.937,17.1-1.879,34.2c-2.245,28.823-1.469,52.161,2.441,73.429m2.3,325.744a119.7,119.7,0,0,1-24.6-2.559c-25.23-5.293-48.151-17.787-67.655-29.083-1-.566-2.006-1.131-3.044-1.711-7.636-4.275-17.138-9.586-23.094-16.071-6.533-7.116-7.658-14.2-3.538-22.311l.652-1.282-.681-1.268c-4.266-7.937-3.948-17.763.771-23.885l3.966-5.146-6.521.693c-6.575.7-13.2,1.64-19.612,2.554-7.111,1.018-14.466,2.064-21.709,2.766l-2.013.2-.463,1.937c-.258,1.079-.576,1.734-2.81,1.734a39.134,39.134,0,0,1-7.3-1.164,52.785,52.785,0,0,0-11.035-1.593,19.775,19.775,0,0,0-4.522.481l-.814.189-.579.594a2.367,2.367,0,0,1-1.645.613,2.052,2.052,0,0,1-1.241-.372l-.913-.712-1.159.127c-20.192,2.215-37.6,6.108-53.226,11.891l-.071.028-.339.146c-5.649,2.437-11.49,4.958-16.81,4.958a13.45,13.45,0,0,1-9.938-4.161l-.817-.8-1.153-.014c-11.7-.108-17.041-13.748-17.78-22.886l-.093-1.15-.892-.749c-20.384-17.108-32.418-40.6-36.791-71.825-3.982-28.442-.925-58.431,2.592-84.014,8.134-66.3,16.618-125.734,38.183-182.1l1.008-2.635-2.685-.965c-9.314-3.347-16.432-7.34-21.762-12.208l-.369-.338-.465-.191c-7.639-3.138-11.38-14.723-12.345-18.2l-.077-.28-.135-.258c-1.559-2.989-1.918-7.149-.986-11.41l.1-.459-.058-.467c-.5-4.047,1.167-8.277,2.936-12.756.808-2.046,1.643-4.161,2.254-6.268,2.1-6.02,4.194-12.147,6.221-18.073,4.549-13.3,9.252-27.043,14.262-40.417l.685-1.829-1.51-1.261c-2.577-2.152-1.716-4.687,2-10.745a44.949,44.949,0,0,0,2.34-4.119,279.6,279.6,0,0,1,15.176-23.487l.109-.151.087-.164c27.235-50.866,75.546-78.878,136.032-78.878l1.233,0,.681-.41c11.336-6.817,19.429-18.514,24.74-35.759l.17-.55-.066-.571a39.572,39.572,0,0,1-.313-5.7,17.125,17.125,0,0,1,5.507-12.538C330.737-76.55,340.318-77,349.591-77h1.331c11.855.036,20.225,2.095,26.34,6.481,7.105,5.1,11.032,13.323,12.005,25.15.291,3.539.281,7.205.272,10.751l0,.989.119.393a69.887,69.887,0,0,0,2.966,8.028l1.148,2.589,2.611-1.167a16.713,16.713,0,0,1,6.546-1.186c.783-.018,1.547-.026,2.318-.026,6.307,0,13.054.576,19.58,1.132,4.917.42,10,.854,14.922,1.047l.067,0s.68,0,.985,0c11.961,0,20.632,1.881,27.287,5.92C475.252-12.555,480.4-5.576,484.3,5.06c20.9,60.966,29.49,126.635,37.068,184.571,4.3,30.3,5.606,61.357,6.871,91.394,1.334,31.7,2.715,64.489,7.6,96.535l.386,2.533,2.592-.167c11.419-.737,23.762-2.324,36.827-4.006,19.851-2.553,40.375-5.194,60.222-5.194,27.745,0,48.779,5.459,64.3,16.688,10.816,10.2,16.415,24,16.184,39.932-.325,22.508-12.23,47.4-30.332,63.4l-.066.061c-22.881,21.613-64.647,40.361-124.133,55.721-54.7,14.125-111.285,21.8-140.146,25.115l-7.143.825,5.8,4.19c2.347,1.7,4.488,3.191,6.546,4.567l1.328.891,1.454-.669c4.147-1.9,6.781-2.3,8.262-2.3,1.314,0,2.9.283,2.985,1.645A2.293,2.293,0,0,1,439,583.169l-7.1.886,5.8,4.138c3.872,2.762,9.649,6.089,16.339,9.944,21.886,12.607,54.962,31.666,49.273,48.4l-.373,1.1.529,1.037a9.216,9.216,0,0,1,.4,8.5c-2.7,5.844-11.148,10.274-18.323,12.079l-.123.028-.12.042a118.065,118.065,0,0,1-38.947,6.556" transform="translate(-103.701 77.003)" fill="#fff" fill-rule="evenodd"/><path d="M418.628,580.533a2.57,2.57,0,0,0,.419-3.379c-3.115-3.978-9.577-1.258-13.6-.339-1.518-1.263-3.026-2.531-4.477-3.869.5-3.125-3.257-5.208-4.8-7.621a40.594,40.594,0,0,0-4.765-5.288c-4.434-3.459-10.58-1.117-15.727-1.277-3.964-5.043-8.045-9.925-11.815-15.133,4.345-7.3,4.652-15.859,3.21-24,66.655-25.289,124.35-73.177,196.437-84.244,2.479-.413,3.869-3.426,3.252-5.636-5.029-12-77.29,18.965-88.092,24.573-31.859,15.256-61.7,34.268-92.665,51.046-6.457,3.431-13.559,5.274-20.619,7.06-10.849-35.611-29.2-68.248-43.274-102.58a35.438,35.438,0,0,0,2.352-4.954c-.467,18.881,17.895,18.616,20.43.706-1.046,9.336,6.014,29.33,16.2,16.211,2.389-3.3,3.238-7.516,3.643-11.773q.785,4.415,1.777,8.792c2.615,5.785,9.756-1.248,11.414-4.266a5.651,5.651,0,0,0,2.508-1.142c18.017,2.5,39.239,2.358,52.459-11.866,22.424,8.6,47.242.9,69.921-2.539,46.147-5.306,92.479-13.394,139.043-12.776,20.789,1.207,45.315,4.564,58.464,22.3,16.867,25.57,7.333,60.107-11.273,82.238-44.758,56.673-198.393,81.312-270.425,89.753m1.258,20.412c.815-.217,1.635-.415,2.451-.608,13.064,10.877,74.591,39.122,69.911,55.994-1.654,2.1-5.613,2.573-8.116,3.252-4.359,1.178-8.761,2.2-13.205,3.012-14.365,2.611-29.244,3.068-43.59.085-5.278-.8-10.043-3.054-14.85-5.231-15.534-6.834-32.642-14.384-48.1-21.161-19.639-7.786-54.085-23.126-39.918-49.019,13.422,15.1,30.46,13.781,39.042-4.986,2.96-5.693,5.542-13.371,12.494-15.675,3.667-2.479,8.356-2.993,11.419-.231a4.566,4.566,0,0,0,.527-1.254c3.455,4.916,6.434,10.09,10.482,14.586-1.39.071-15.859,10.783-11.589,10.788a75.08,75.08,0,0,1,15.788-6.278A124.664,124.664,0,0,0,415.654,595.5a53.175,53.175,0,0,0-11.66,10.439.389.389,0,0,0,.476.6,104.892,104.892,0,0,1,15.416-5.6M486.112,673.9c-49.971,22.448-102.874-2.55-145.488-29.2-9.835-5.491-22.772-13.276-20.783-26.2,7.244,10.6,19.186,16.632,30.648,21.863,19.257,8.7,38.641,17.131,57.945,25.728,1.823,6.051,10.542,6.282,15.812,7.625a125.592,125.592,0,0,0,70.746-6.782c-1.278,3.78-5.458,5.519-8.879,6.966M286.736,586.5q-1.851.233-3.7.438a3.667,3.667,0,0,0-2.441-3.77,34.26,34.26,0,0,0,.594-10.557c2.064,5.33,8.728,3.714,12.96,2.173q9.07-2.46,18.032-5.293A90.405,90.405,0,0,0,320.1,582.14c-11.17.994-22.236,2.964-33.363,4.355m-4.915-16.778a5.078,5.078,0,0,0-.73,2.041,33.548,33.548,0,0,0-1.786-7.611l2.517,5.571M274.771,555.8c-5.5-7.164-15.652-13.017-25.04-11.023a.636.636,0,0,0,0,1.221c12.612,1.716,23.687,11.716,24.125,24.653.995,5.853-3.077,11.6-1.706,17.216-.273.019-.547.033-.815.052a8.557,8.557,0,0,1-.307,1,1.445,1.445,0,0,1,.156,2.809,16.039,16.039,0,0,1-2.959.405c-5.142-1.39-10.566-1.711-15.482-3.761-4.864-2.149-3.648-8.191-5.363-12.371a124.739,124.739,0,0,0-4.529-14.257.349.349,0,0,0-.679.085c-1.287,9.237-1.244,18.625-.933,27.933-1.687.174-3.365.363-5.048.57.109-2.6-7.691-34.272-11.8-26.143,2.069,8.936,2.319,18.272,2.54,27.467a215.764,215.764,0,0,0-35.922,9.082c-8.243,2.5-18.046,9.888-26.048,3.2-6.2-5.123-8.285-14.063-7.7-21.675,8.059-45.013,71.712-50.277,109.288-46.945q5.323,12.28,10.826,24.493a30.17,30.17,0,0,0-2.6-4.02M146.612,581.4c-.688-10.222,1.032-22.947,8.606-30.563,17.334-14.657,41.606-19.266,63.266-24.573a235.893,235.893,0,0,1,30.587-3.973c3.643-.287,8.271.537,10.844-2.441q1.987,4.708,4.011,9.4c-43.123-5.646-133.093,13.978-107.9,73.055a33.979,33.979,0,0,1-9.416-20.906m214.244-33.792a62.846,62.846,0,0,0,7.583,14,27.184,27.184,0,0,0-8.62,9.591c-13.29,34.772-27.5,16.146-45.164-2.512,14.945-5.641,34.739-9.864,46.2-21.076M139.637,574.326c-34.56-34.14-41.266-91.016-28.5-135.72,1.136-16.578,6.933-32.376,12.126-48.072a726.645,726.645,0,0,1,64.374-136.667c32.364,8.89,64.671,18.017,97.11,26.615,4.467.97,8.94,2.888,13.526,3.166,1.64,1.045,3.285,2.2,4.991,3.208-2.484,12.168-.193,24.591.386,36.833.527,9.637-.514,19.076-1.791,28.611-1.427,13.871-7.305,58.99,4.473,67.25,3.992,1.927,7.559-3.779,9.28-2.21a19,19,0,0,0,4.176-4.038c4.548,14.707,11.98,28.351,16.571,43.071,6.107,21.632,26.166,56.654,21.712,77.287-3.445,12.744-18.517,15.491-29.394,19.658-12.569,4.374-25.28,8.389-38.2,11.646-6.306-13.385-12.334-26.892-18.248-40.451-27.033-62.569-50.975-126.438-72.371-191.069-.4-1.434-5.321-16.977-6.221-12.641-.075-.446-.636-1.6-.848-.613,3.629,15.176,7.309,30.347,11.292,45.44-9.784-1.37-20.3-1.9-29.258,2.892-.462.246-.122.854.334.78,10.6-1.839,20.832,1.634,31.016,4.127,14.3,48.689,32.76,96.145,52.294,143.006-6.042-1.928-13.055.2-19.361.353a247.077,247.077,0,0,0-58.256,13.158c-23.583,7.644-40.258,17.617-41.214,44.381M120.611,219.021c-5.806-6.253-10.368-14.238-9.487-22.711,3.488-4.652,4.642-10.719,6.673-16.1,7.941-22.5,15.312-45.166,23.956-67.421,18.385,5.655,36.473,12.437,53.534,21.345q4.708,2.4,9.313,4.986c3.214,1.8,6.721,4.93,10.576,4.034-4.213,5.966-12.89,12.173-14.356,19.066-.316,2.182,1.23,4.206,3.605,3.719,37.18,26.411,75.576,52.264,110.72,81.682,26.317,20.836,46.521,37.734,55.546,71.54,6.084,21.9,6.1,44.785,5.208,67.3-.174,4.377-.179,8.858-.533,13.264.528,3.3-.476,10-4.18,10.125a4.973,4.973,0,0,0,.768,2.187c-.118.157-.24.306-.368.46-.184-.9-.363-1.8-.533-2.7-2.884-12.776-3.271-27.6-2.79-41.2.2-3.9-5.778-3.807-6.113,0q-1.35,15.425-2.7,30.844c-1.08,6.662.622,15.375-4.7,20.44-5.415-5-3.624-14.874-3.36-21.332.424-10.534.881-21.062,1.272-31.6.123-3.338-5.406-4.2-6.033-.8q-2.664,14.512-5.769,28.941c-1.248,3.719-2.106,20.4-8.346,17.507-3.719-2.539-1.037-17.427-1.527-22.358.231-9.759.367-19.5,1.084-29.238.292-3.928-6.1-4.763-6.98-.928-1.423,6.207-2.785,12.414-4.02,18.662-2.71,10.534-1.725,24.814-11.509,31.815-3.832-27.362,1.682-54.534,2.455-81.8-.462-8.834-1.979-17.581-3.318-26.308-1.48-9.652-2.342-20.157,1.122-29.465-.947-4.169-4.67,7.108-5.019,8.045-2.8-5.525-9.633-5.952-15.034-7.674-12-3.886-24.3-6.815-36.445-10.269q-48.313-13.419-96.709-26.541c-12.885-3.565-26.449-7.785-36-17.525M443.139,364.565c-4.444-24.09-4.322-48.5-2.422-72.853,2.088-37.77,4.114-75.55,6.282-113.316,9.412,68.354,19.445,136.63,27.118,205.2.547,4.772.462,9.823,2.871,14.08-13.309,1.783-27.5,3.579-40.437-.947a53.337,53.337,0,0,0,6.589-32.168M510.388,194.89c10.062,64.785,4.322,130.706,14.08,195.417-13.538,1.518-26.975,3.765-40.374,6.235,1.466-7.995-1.314-16.249-1.8-24.3-7.277-57.418-15.312-114.8-25.959-171.713-2.611-13.621-5.25-27.186-8.276-40.732.457-8.2.858-16.406,1.122-24.615a135.383,135.383,0,0,1,48.666-18.332c4.656,25.942,9.308,51.865,12.536,78.039M393.908-8.688c-.589-1.007-1.15-2.038-1.687-3.083a42.475,42.475,0,0,1,5.382.432c-.08,2.883.08,5.789.113,8.7-.9-2.126-2.649-4.067-3.808-6.044M697.8,397.293c-42.977-31.252-113.567-11.341-163.354-8.129-9.492-62.241-5.618-125.5-14.463-187.84-8.148-62.283-16.74-125.433-37.2-185.106-8.446-23.073-23.056-29.925-47.11-29.739C423.468-14,410.559-15.954,398.7-15.676a19.764,19.764,0,0,0-7.668,1.435,79.627,79.627,0,0,1-5.995-23.467.461.461,0,0,0-.9-.116,38.3,38.3,0,0,0-1.57,21.986c1.1,5.255,7.635,25.937,15.228,17.845.6,16.968-3.125,37.232-19.747,46.039C349,60.711,308.849,49.179,292.025,22.3c-3.252-5.371-6.056-11.087-9.657-16.244,25.087-7.1,39.169-37.162,33.259-60.054-3.653,17.8-10.312,37.7-26.9,47.668-60.392-.135-110.6,27.371-138.974,80.35a281.758,281.758,0,0,0-15.388,23.82c-2.531,5.441-9.944,13.008-3.653,18.263-7.267,19.4-13.715,39.061-20.529,58.61-1.872,6.513-6.151,13.347-5.3,20.194-.924,4.22-.881,9.211,1.235,13.268,2.008,7.233,6.513,16.963,13.983,20.032,6.339,5.789,14.356,9.777,22.716,12.78-22.3,58.271-30.785,121.116-38.34,182.683-7.4,53.861-11.226,119.38,35.168,158.3.9,11.137,7.507,25.332,20.572,25.45,9.048,8.889,20.077,4.011,30.148-.335,17-6.292,34.828-9.784,52.544-11.73a5.251,5.251,0,0,0,6.683-.49c10.731-2.474,25.605,7.545,27.773-1.532,13.837-1.343,27.523-3.86,41.346-5.326-5.826,7.56-5.406,18.706-1.018,26.868-11.174,21.981,14.855,34.711,30.771,43.731,21.486,12.442,43.924,24.248,68.5,29.409a122.079,122.079,0,0,0,65.081-4.1C493,681.173,508.3,672.133,501.8,659.4c8.239-24.234-49.617-49.344-66.635-61.48,6.956-.867,7.211-15.307-10.882-7.008q-3.28-2.2-6.461-4.51c73.182-8.413,212.942-31.553,265.905-81.58,29.1-25.723,45.885-77.755,14.077-107.527" transform="translate(-100 64.84)" fill-rule="evenodd"/></g><g transform="translate(131)"><g transform="translate(2.448)"><path d="M69.005,87.127c.177-6.3,9.338-8.914,11.985-2.676.164.167.343.328.51.471-.829-.711.9.465,1.186.61.241.124.488.237.734.352,1.7-15.957,7.482-33.159,22.416-41.168,20.829-10.1,44.9-12.072,67.749-11.069,11.576.687,24.944,2.538,35.228-3.318,3.2-1.825,5.773-4.7,9.395-5.825,11.432-3.092,16.617,8.646,15.06,18.3a13.223,13.223,0,0,1,11.817,7.183c1.236,2.631,1.214,5.469,2.28,8.109,3.269,6.695,7.947,11.507,5.3,19.624,4.652,5.293,2,13.306-1.754,18.374-1.854,2.636-4.061,5.166-5.419,8.116-1.318,2.825.672,6.175,1.779,8.853,8.185,19.41,7.718,40.785,3.313,61.031,8.839,3.835,11.491,15.824,5.728,23.372-1.983,2.668-4.4,3.659-7.146,5.3-3.472,1.911-.636,9.566-1.748,13.262-1.511,9.025-9.728,14.582-17.853,8.722-5.156-.78-9.314,14.221-13.058,17.986a60.278,60.278,0,0,1-7.652,8.272c-8.3,21.346-50.807,32.17-71.825,30.935-22.01-2.3-36.858-21-49.221-37.585a65.739,65.739,0,0,1-11.98-29.522c-1.509-10.844-.849-21.708.171-32.566,2.142-23.069,5.522-56.3,7.7-79.622-7.886-.649-14.94-7.364-14.7-15.522Z" transform="translate(-64.345 -19.26)" fill="#fff" fill-rule="evenodd"/><path d="M104.03,117.514a.2.2,0,0,1-.011.092c0-.01,0-.015-.006-.027s.011-.044.016-.065" transform="translate(72.551 -63.517)" fill-rule="evenodd"/><path d="M103.8,118.076a.886.886,0,0,1,.111-.084l0,0c-.038.025-.075.054-.113.081" transform="translate(72.783 -63.743)" fill-rule="evenodd"/><path d="M60.915,85.848c-2.591-2.152-6.671-.171-5.794,3.373.955,3.859,5.091,6.5,8.505,8.081A21.963,21.963,0,0,0,74.4,99.07l.047-.011h0c-1.065,4.268-1.668,8.7-2.482,13q-1.55,8.171-3.051,16.35c-.969,5.271-2.193,10.548-2.938,15.845-.751,5.347-1.471,10.7-2.209,16.046-1.23,8.933-2.224,17.907-3.272,26.866l-.5,4.24c-1.049,8.976-1.894,17.962.094,26.894,1.863,8.371,6.06,16.179,10.928,23.167a150.234,150.234,0,0,0,15.939,19.373c11.277,11.478,25.183,20.671,41.488,22.376a46.2,46.2,0,0,0,21.12-2.635l.438-.171c6.682-2.638,14.864-7.155,16.6-14.567a5.325,5.325,0,0,0-7.726-5.939,22.386,22.386,0,0,0-4.9,3.575l-.277.255a17.166,17.166,0,0,1-3.242,2.478,26.947,26.947,0,0,1-8.719,3.665,37.508,37.508,0,0,1-19.582-.543c-13.639-4-24.22-14.426-33.285-24.883a104.733,104.733,0,0,1-13.2-18.254,44.017,44.017,0,0,1-5.421-22.136c.119-8.915,1.351-17.865,2.159-26.738q1.236-13.568,2.257-27.146c.629-8.495.689-17.027.909-25.549l.043-1.6c.129-4.524.219-9.049.321-13.573s.459-9.08-.006-13.573a.3.3,0,0,0-.581-.079c-.274.842-.514,1.7-.74,2.556a.431.431,0,0,0-.121-.066,22.225,22.225,0,0,1-8.026-5.316C64.326,90.857,63.2,87.749,60.915,85.848ZM225.3,22.642c-1.887-7.751-10.38-9.483-16.661-5.75-3.021,1.8-5.44,4.384-8.261,6.441a36.077,36.077,0,0,1-9.177,4.849,61.045,61.045,0,0,1-20.225,3.173c-16.719.073-33.1-4.625-49.839-4.1-12.956.406-26.707,4.234-36.1,13.6A39.473,39.473,0,0,0,74.956,59.271a96.627,96.627,0,0,0-1.908,9.8l-.118.822a51.3,51.3,0,0,0-.741,5.9,34.488,34.488,0,0,0,.644,5.3c.5,3.64,6.142,3.225,6.952,0,1.845-7.343,1.072-14.922,3.327-22.24A29.95,29.95,0,0,1,94.6,42.809c23.681-16.371,54.05-2.662,80.143-3.935A64.286,64.286,0,0,0,193.6,35.381a49.093,49.093,0,0,0,8.968-4.251,86.327,86.327,0,0,0,7.194-5.428l1.052-.8c1.635-1.23,4.419-3.154,6.069-1.526.718.708.761,2.31.748,3.533l-.008.553c-.075,5.193-1.133,10.376.81,15.392.887,2.288,3.35,3.731,5.693,2.435l.121-.069c4.956-2.948,11.468,2.976,7.66,7.879l-.119.148c-2.142,2.6-1,7.187,2.834,7.176l.138,0c6.831-.213,9.861,8.323,3.974,12.053l-.181.112c-4.78,2.861-.587,9.738,4.312,7.377-.415.2.307.2.72.752a1.982,1.982,0,0,1,.332,1.664c-.286,2.036-2.077,3.752-3.528,5.041A30.2,30.2,0,0,1,228.8,93.6c-16.861,4.929-34.159-1.1-50.587-4.742-17.127-3.8-36.471-5.325-51.407,5.447-.177.127-.022.412.174.3,10.719-6.225,23.847-5.672,35.565-3.12,15.365,3.347,30.6,9.577,46.332,11.218a41.841,41.841,0,0,0-5.087,25.93c.812,6.14,3.256,11.466,6.143,16.864l.55,1.029c2.574,4.845,4.567,9.422,4.6,15.035.031,5.577,8.321,6.752,9.727,1.317,3.19-12.344-8.433-22.067-13.175-32.246a36.419,36.419,0,0,1-.9-27.757,66.083,66.083,0,0,0,11.2-.007,53.432,53.432,0,0,0,9.809-1.8l1.3,5.457a132.339,132.339,0,0,1,3.8,22.082,103.329,103.329,0,0,1-.2,16.656,123.9,123.9,0,0,1-2.459,14.055,5.9,5.9,0,0,0-1.06,4.262,16.891,16.891,0,0,0-11.6,11.871.323.323,0,0,0,.587.248c3.814-6.328,13.636-8.657,19.848-4.476a14.441,14.441,0,0,1,4.915,18.43,16.522,16.522,0,0,1-7.763,7.335l-.679.319a10.412,10.412,0,0,0-4.533,3.432c-1.476,2.182-1.526,4.488-1.387,6.981l.061,1.01a14.216,14.216,0,0,1-.383,5l-.113.357a4.876,4.876,0,0,1-.509,1.138c-.072.114-.744.773-.963,1.012l-.276.083h0l-.309.013h0c-.342.005-.792-.143-.645-.041l-.04-.023c-.13-.081-.25-.166-.35-.243l-.191-.149a5.371,5.371,0,0,0-1.7-1.588l-.657-.292h0c-1.706-1.8-4.629-.855-5.853.94a7.326,7.326,0,0,0-1.393,3.9.382.382,0,0,0-.637-.094l-1.16,1.478a197.427,197.427,0,0,1-13.839,16.542,92.388,92.388,0,0,1-8.888,7.988c-2.666,2.1-7.724,4.129-7.8,7.962a2.741,2.741,0,0,0,1.94,2.548c3.518,1.374,7.865-3.3,10.406-5.574l.208-.184a74.806,74.806,0,0,0,8.567-8.911c5.087-6.211,9.34-13.359,11.215-21.223a6.537,6.537,0,0,0,1.823,3.986,11.143,11.143,0,0,0,5.845,3.361,12.371,12.371,0,0,0,13-4.926c2.542-3.56,3.29-8.261,2.962-12.563l-.04-.516a14.135,14.135,0,0,0-.283-2.494l1.591-.874h0a26.231,26.231,0,0,0,5.382-3.9c6.523-6.013,9.8-15.786,6.813-24.337a21.806,21.806,0,0,0-10.8-12.424,26.13,26.13,0,0,0,1.436-6.278l.053-.337a93.873,93.873,0,0,0,1.157-10.107,91.414,91.414,0,0,0-1.061-18.932c-1.612-10.139-4.949-20.892-11.065-29.4a32.063,32.063,0,0,0,12.277-8.261c3.464-3.893,5.673-9.465,2.994-14.409a10.645,10.645,0,0,0-2.595-3.16,14.863,14.863,0,0,0,1.253-11.087,15.074,15.074,0,0,0-9.145-9.695A13.263,13.263,0,0,0,225.2,36.537C224.957,31.981,226.391,27.135,225.3,22.642Zm12.723,159.97a15.5,15.5,0,0,0-13.243.217l-.281.133c-4.536,2.2-10.543,7.338-9.1,12.8a4.934,4.934,0,0,0,7.149,2.908c2.3-1.153,2.825-3.214,3.979-5.285a16.772,16.772,0,0,1,3.009-3.786,29.113,29.113,0,0,1,8.488-5.8A.7.7,0,0,0,238.02,182.611ZM133.224,72.139c.39-.178.107-.789-.285-.677-10.451,2.984-20.2,9.683-26.018,18.982a2,2,0,0,0,0,2.063l.188.255a1.5,1.5,0,0,0,1.033.684,2.144,2.144,0,0,0,2.308-.939C116.186,83.644,123.535,76.571,133.224,72.139ZM63.26,73.894a2.048,2.048,0,0,0-3.7.484l-.067.146c-.252.573-.137.691.333.366a3.831,3.831,0,0,0-1.336,3.926c1.924,8.3,11.326,14.229,19.523,13.413a.621.621,0,0,0,.164-1.213,22.147,22.147,0,0,1-8.2-5.9c-2.188-2.474-3.108-5.3-4.284-8.291a4.1,4.1,0,0,0-2.1-2.37A3.4,3.4,0,0,1,63.26,73.894Zm46.614-5.335-.056,0a18.282,18.282,0,0,0-10.813,5.668C96.157,77.164,92.562,82,92.87,86.308c.2,2.853,4.261,4.485,5.775,1.564.9-1.742,1.108-3.652,1.741-5.495a22.584,22.584,0,0,1,2.342-4.8A37.389,37.389,0,0,1,110.2,69.49a.556.556,0,0,0-.328-.931ZM217.9,67.3a1.269,1.269,0,0,0-1.225-2.1c-6.264,1.586-12.468,3.515-18.981,3.707a61.1,61.1,0,0,1-9.71-.582l-1.631-.217a22.705,22.705,0,0,0-7.553-.069,2.168,2.168,0,0,0-.948,3.59c4.873,5.256,14.272,4.754,20.734,3.868C205.6,74.524,212.684,72.264,217.9,67.3ZM104.776,50.911a.872.872,0,0,0-.975-1.269c-6.225,2.406-12.75,8.671-14.465,15.225a1.816,1.816,0,0,0,3.012,1.753c2.389-2.4,4.076-5.224,6.1-7.916S102.81,53.637,104.776,50.911Zm102,2.927c.5-.5,0-1.492-.721-1.238a67.93,67.93,0,0,1-12.4,3.329c-4.361.667-8.764.16-13.148.43-1.773.109-2.981,2.868-1.01,3.726C188.267,63.9,200.166,60.441,206.78,53.838Zm-11.192-8.555c.7-.515.3-1.929-.647-1.534a27.289,27.289,0,0,1-11.906,1.837,1.364,1.364,0,0,0-.361,2.667A15.908,15.908,0,0,0,195.588,45.283Z" transform="translate(-55 -15.001)" fill-rule="evenodd"/></g><g transform="translate(18.911 170.499)"><path d="M84.949,50.142c-4.264-9.991-13.572-17.333-24.288-20.018C52.791,28.157,44.532,28.22,36.51,29c-4.2.406-8.711.739-12.672,2.3a18.575,18.575,0,0,0-8.211,6.813A38.555,38.555,0,0,0,10.3,49.744q-.251.877-.471,1.766c.512,3.1,1.6,5.744,4.474,7.7a19.545,19.545,0,0,0,9.488,2.961c.327-.157.643-.318.933-.484,5.2-2.976,8.858-10.009,15.42-9.057,5.856.85,9.711,8.218,13.193,12.539,11.178,1.3,22.348-2.057,31.443-8.449a18.537,18.537,0,0,0,.166-6.574M2.234,42.563A43.125,43.125,0,0,1,5.59,35.333,41.121,41.121,0,0,1,24.822,18.281c19.027-8.147,43.645-2.4,59.011,10.957,5.249,4.567,10.556,11.279,12.161,18.5a2.686,2.686,0,0,1,1.3.7c11.1-6.989,22.534-13.714,31.48-23.4A62.332,62.332,0,0,0,142.559.505a.718.718,0,0,1,1.4.19l-.032.585c.116-.359.663-.174.7.174,1.489,11.121,3.351,22.911,1.636,34.09-1.026,6.67-4.056,11.554-8.106,16.827A166.765,166.765,0,0,1,123.89,68.322c-3.188,3.2-6.518,6.891-10.421,9.238a124.689,124.689,0,0,1-14.534,6.9C94.006,86.608,89,88.591,83.906,90.309A140.692,140.692,0,0,1,52.47,97.185c-8.579.833-18.385,1.741-26.607-1.487A35.941,35.941,0,0,1,10.44,83.375,58.759,58.759,0,0,1,.656,63.808C-1.339,56.5,1.814,43.741,2.234,42.563" transform="translate(0 0)" fill-rule="evenodd"/></g><g transform="translate(23.597 113.968)"><path d="M102.274,154.845a22.163,22.163,0,0,0,9.312-7.164,4.3,4.3,0,0,0,.871-3.341,4.822,4.822,0,0,0-1.875-3.02,4.489,4.489,0,0,0-3.363-.91,4.214,4.214,0,0,0-2.843,1.879l-.168.232a14.674,14.674,0,0,1-5.376,4.511,12.114,12.114,0,0,1-6.653,1.17c-4.477-.506-7.562-2.927-10.842-6.214-.407-.415-.813-.843-1.222-1.278a1.921,1.921,0,0,0-1.014-.781,2.183,2.183,0,0,0-1.4.021,2.219,2.219,0,0,0-1.1.835,2.039,2.039,0,0,0-.347,1.35,13.979,13.979,0,0,0,4.612,8.836,19.787,19.787,0,0,0,21.408,3.877ZM89.085,102.281c-4.111,2.5-10.375,8.325-5.952,14.52,5.205,5.462,12.7-.8,16.393-3.633,3.425-2.195,7.272,3.451,4.095,6.014C76.934,138.939,66.1,102.935,87.006,99.343,89.307,98.948,90.162,101.508,89.085,102.281ZM136.908,79.3c-.454-5.637-9.04-6.918-9.894-1.339A22.836,22.836,0,0,0,129.4,92.046c2.151,4.3,7.557,2.293,7.965-1.621C137.914,85.179,137.191,82.805,136.908,79.3ZM71.55,76.8c-1.2-1.568-2.925-2.638-5-2.033-6.47,1.891-4.563,11.076-2.291,15.546,1.235,2.428,5.225,3.044,7.029.906,2.94-3.486,4.347-10.448.61-13.882A4.714,4.714,0,0,0,71.55,76.8ZM129.491,54.63l-1.022-.179c-3.161-.547-7.092-1.072-9.329,1.47-1.186,1.348-1.594,3.853,0,5.143,2.8,2.27,5.905,1.39,9.266,1.582a36.87,36.87,0,0,1,8.1,1.38c5.853,1.673,10.622,4.727,15.621,8.08.656.44,1.326-.4,1.013-1.013-2.886-5.652-8.478-10.295-14.079-13.125A34.828,34.828,0,0,0,129.491,54.63ZM77.447,52.1l-.782.16c-8.512,1.779-19.571,5.334-23.6,13.695-.154,1.182.009,1.436.14,1.6l.044.055a1.1,1.1,0,0,0,.708.5q.213-.051.431-.108a24.455,24.455,0,0,0,4.725-1.843l1.535-.756a42.293,42.293,0,0,1,5.48-2.335,64.546,64.546,0,0,1,12.483-2.757,5.124,5.124,0,0,0,2.5-.95,3.761,3.761,0,0,0,1.4-2.133,3.824,3.824,0,0,0-.432-3.2,4.051,4.051,0,0,0-1.976-1.7A4.639,4.639,0,0,0,77.447,52.1Z" transform="translate(-53 -52)" fill-rule="evenodd"/></g><g transform="translate(0 120.459)"><path d="M27.176,44.412A41.954,41.954,0,0,0,33.7,56.1c11.216,9.5,22.114,4.239,27.649-8.634,2.1-9.1-3.48-18.9-9.4-25.589-8.544-8.563-22.487-4.069-26.415,6.111a31.3,31.3,0,0,0-.452,3.946,34.74,34.74,0,0,0,2.085,11.953m107.812-7.649c-14.776-17.576-42.418-18.515-41.713,8.535C96.448,79.012,149.9,70.608,134.988,36.237ZM22.528,21.575a24.539,24.539,0,0,1,1.72-2.537c.232-.138.365-1.362,1.217-1.453C36.857,5.018,56.87,12.148,64.1,24.671a20.479,20.479,0,0,1,3.192,5.4c7.125-1.307,15.43-1.053,22.057,1.638,6.57-17.157,26.463-18.689,39.571-11.358,8.153,4.01,13.441,12.408,21.37,17.021,18.64,1.342,38.646-2.835,56.95,1.841,14.436,3,2.368,10.311-.053,5.433-17.257-5.1-37.7-.79-55.62-1.939-1.863,3.151-5.436,5.73-9,5.62C138.725,82.413,89.011,76.76,87.3,46.455a22.208,22.208,0,0,0-7.827-7.935,16.812,16.812,0,0,1-3.776-1.183,9.608,9.608,0,0,0-6.924,2.231c-6.3,37.828-42.626,33.422-49.116.283a4.314,4.314,0,0,1-.767-1.418c-2.221-2.938-7.661-4.03-6.791-8.989C12.867,24.484,19.131,24.543,22.528,21.575Z" transform="translate(-12 -11)" fill-rule="evenodd"/></g></g></g></svg>